<?xml version="1.0" encoding="UTF-8"?>
<svg id="Camada_2" data-name="Camada 2" xmlns="http://www.w3.org/2000/svg" viewBox="0 0 524.08 122.78">
  <defs>
    <style>
      .cls-1 {
        font-family: Montserrat-Black, Montserrat;
        font-weight: 800;
      }

      .cls-2 {
        font-family: Montserrat-Medium, Montserrat;
        font-weight: 500;
        letter-spacing: .04em;
      }

      .cls-3 {
        fill-rule: evenodd;
      }

      .cls-3, .cls-4 {
        fill: #f7931e;
      }

      .cls-4 {
        font-size: 54.56px;
      }

      .cls-5 {
        letter-spacing: 0em;
      }

      .cls-6 {
        letter-spacing: 0em;
      }
    </style>
  </defs>
  <g id="Camada_1-2" data-name="Camada 1">
    <text class="cls-4" transform="translate(118.22 58.05)"><tspan class="cls-2"><tspan x="0" y="0">GERADOR DE</tspan></tspan><tspan class="cls-1"><tspan class="cls-5" x="0" y="50">A</tspan><tspan class="cls-6" x="43.43" y="50">CHADINHOS</tspan></tspan></text>
    <g>
      <path class="cls-3" d="M95.72,42.85c-1.42-6.39-3.84-11.71-7.94-15.8-4.09-4.09-9.4-6.51-15.79-7.94-1.17-.26-2.38-.48-3.65-.68C65.66,7.73,57.93,0,48.8,0s-16.85,7.73-19.55,18.43c-1.26.2-2.47.42-3.63.68-6.39,1.43-11.71,3.85-15.79,7.94-4.09,4.09-6.52,9.41-7.94,15.8-1.41,6.34-1.9,14.03-1.9,23.19s.48,16.84,1.9,23.18c1.42,6.4,3.84,11.71,7.94,15.8,4.09,4.09,9.4,6.52,15.79,7.94,6.34,1.41,14.03,1.89,23.19,1.89s16.85-.48,23.19-1.89c6.39-1.42,11.71-3.85,15.79-7.94,4.09-4.09,6.52-9.4,7.94-15.8,1.41-6.34,1.9-14.03,1.9-23.18s-.49-16.85-1.9-23.19ZM48.8,7.11c5.99,0,11.21,4.29,13.94,10.64-4.21-.37-8.84-.52-13.93-.52s-9.74.15-13.95.52c2.74-6.35,7.96-10.64,13.94-10.64ZM71.78,89.01c-1.9,1.9-4.99,1.9-6.9,0l-6.82-6.82c-3.39,2.14-7.39,3.37-11.69,3.37-12.13,0-21.96-9.83-21.96-21.96,0-4.6,1.41-8.87,3.83-12.39,1.27-1.86,2.83-3.52,4.6-4.9,3.73-2.94,8.43-4.68,13.54-4.68,7.71,0,14.5,3.98,18.41,9.99,2.25,3.44,3.56,7.56,3.56,11.98s-1.24,8.31-3.37,11.69l6.82,6.82c1.9,1.9,1.9,4.99,0,6.9Z"/>
      <path class="cls-3" d="M58.57,63.59c0,6.74-5.46,12.2-12.2,12.2s-12.2-5.46-12.2-12.2c0-2.65.84-5.11,2.28-7.11,2.22-3.08,5.84-5.09,9.92-5.09s7.7,2.01,9.91,5.09c1.44,2,2.29,4.46,2.29,7.11Z"/>
    </g>
  </g>
</svg>